# xmcd
#
# Track frame offsets:
#	150
#	23098
#	49476
#	70122
#	88060
#	111148
#	134549
#	154637
#	182632
#	204320
#
# Disc length: 3101 seconds
#
# Revision: 1
# Processed by: cddbd v1.5.2PL0 Copyright (c) Steve Scherf et al.
# Submitted via: EZCDAudioConverter 8.0.2.1
#
DISCID=850c1b0a
DTITLE=Lâm Gia Minh - Xin Đừng Xé Thư Tình
DYEAR=2002
DGENRE=country
TTITLE0=Xin Đừng Xé Thư Tình
TTITLE1=Tạ từ trong đêm
TTITLE2=Nghèo
TTITLE3=Tình bạn bè
TTITLE4=Tuyết lạnh
TTITLE5=Những chuyện mong manh
TTITLE6=Chỉ có bạn bè thôi
TTITLE7=Lưu bút ngày xanh
TTITLE8=Hình bóng cũ
TTITLE9=Tình búp bê
EXTD=
EXTT0=
EXTT1=
EXTT2=
EXTT3=
EXTT4=
EXTT5=
EXTT6=
EXTT7=
EXTT8=
EXTT9=
PLAYORDER=
